<svg width="500" height="500" viewBox="0 0 500 500" fill="none" xmlns="http://www.w3.org/2000/svg">
<g clip-path="url(#clip0_1_1943)">
<path d="M103.142 324.376C93.7371 327.312 84.3841 319.703 85.3454 309.898L85.6077 307.222C86.0514 302.697 88.4545 298.593 92.1838 295.991L100.57 290.141L114.836 280.925L124.235 274.039C128.689 270.775 132.881 267.167 136.772 263.248L81.4977 288.009L81.2525 218.873C80.9811 142.349 142.613 79.9988 219.135 79.3843L407.791 77.8691L362.128 124.594L377.72 119.966L402.291 111.819L426.233 102.095L449.342 89.0942L481.676 64.5226L468.445 87.8342C462.992 94.9656 457.039 101.701 450.632 107.989L449.342 109.256L435.451 123.601L422.292 134.646L406.207 147.902L389.026 162.262L373.301 173.684L348.432 191.37L315.882 213.851L288.445 231.18L258.447 249.618L222.59 270.277L190.754 287.622L161.473 301.658L135.117 313.483L103.142 324.376Z" fill="#FF8400" fill-opacity="0.74"/>
<path d="M343.152 279.967L322.475 248.859L349.29 233.838L378.088 216.818L406.886 199.799L435.019 182.119L435.209 235.855L414.684 247.206L391.835 258.233L366.005 270.266L343.152 279.967Z" fill="black"/>
<path d="M248.081 318.44L233.403 295.273L248.305 288.254L263.538 280.903L287.375 268.213L306.907 257.198L325.262 288.645L319.962 290.654L299.094 299.02L271.93 309.068L248.081 318.44Z" fill="black"/>
<path d="M168.598 343.954L158.565 327.381L170.821 322.362L186.058 316.337L200.962 309.982L215.864 302.963L229.873 324.806L219.27 328.161L204.692 332.856L185.805 338.562L168.598 343.954Z" fill="black"/>
<path d="M19.0386 367.355L10.0815 367.055L19.695 365.363L32.956 363.325L43.2305 360.967L87.6408 350.195L112.491 342.478L142.975 333.082L151.984 347.977L123.481 354.712L85.3601 361.813L49.8833 366.251L33.6335 367.304L19.0386 367.355Z" fill="black"/>
<path d="M334.752 421.611L229.517 421.985L229.934 421.983L132.414 422.329L111.634 422.403C98.5697 422.449 87.5909 412.598 86.2262 399.605L116.061 394.192L89.8431 390.636L66.9381 385.742L50.6718 382.151L33.7374 377.235L19.7918 373.304L52.3009 373.853L64.9055 373.808L88.1223 373.062L107.689 371.998L133.555 369.916L155.438 367.184L175.996 365.121L196.55 361.731L218.097 358.006L235.004 354.961L255.553 350.244L274.444 345.865L293.667 341.153L315.868 334.771L335.752 329.394L360.93 320.68L377.827 314.981L397.04 307.615L414.265 300.92L435.794 291.888L435.939 333.019L413.077 340.066L389.551 347.115L368.341 352.497L341.167 359.891L352.445 359.851L364.717 359.476L384.945 357.746L409.814 355.336L436.336 351.261C436.103 389.582 405.244 420.668 366.926 421.181L334.752 421.611Z" fill="#838383"/>
</g>
<defs>
<clipPath id="clip0_1_1943">
<rect width="500" height="500" fill="white"/>
</clipPath>
</defs>
</svg>
